<?xml version="1.0" encoding="UTF-8"?>
<svg id="Ebene_2" data-name="Ebene 2" xmlns="http://www.w3.org/2000/svg" viewBox="0 0 34.36 28.66">
  <defs>
    <style>
      .cls-1 {
        fill: #231f20;
      }
    </style>
  </defs>
  <g id="Icons">
    <g id="PDF_Annotation" data-name="PDF Annotation">
      <g>
        <path class="cls-1" d="m4.99,20.59v-4h1.29c.49,0,.81.02.96.06.23.06.42.19.57.39.15.2.23.46.23.78,0,.25-.04.45-.13.62s-.2.3-.34.39c-.14.1-.28.16-.42.19-.19.04-.47.06-.84.06h-.53v1.51h-.81Zm.81-3.32v1.13h.44c.32,0,.53-.02.64-.06.11-.04.19-.11.25-.2.06-.09.09-.19.09-.31,0-.15-.04-.27-.13-.36-.09-.09-.19-.15-.32-.18-.1-.02-.29-.03-.58-.03h-.39Z"/>
        <path class="cls-1" d="m8.71,16.6h1.47c.33,0,.59.03.76.08.23.07.44.19.6.37.17.18.29.39.38.65.09.25.13.57.13.94,0,.33-.04.61-.12.85-.1.29-.24.53-.43.71-.14.14-.33.24-.57.32-.18.06-.42.08-.71.08h-1.52v-4Zm.81.68v2.65h.6c.23,0,.39-.01.49-.04.13-.03.24-.09.33-.17s.16-.21.21-.39c.05-.18.08-.42.08-.73s-.03-.55-.08-.71c-.05-.17-.13-.29-.23-.39s-.22-.16-.37-.19c-.11-.03-.33-.04-.66-.04h-.36Z"/>
        <path class="cls-1" d="m12.74,20.59v-4h2.74v.68h-1.93v.95h1.67v.68h-1.67v1.7h-.81Z"/>
      </g>
      <g>
        <path class="cls-1" d="m17.9,13.1v12.72c0,.23-.19.42-.42.42H2.42c-.23,0-.42-.19-.42-.42V9.31c0-.23.19-.41.42-.41h11.29v-2H2.42c-1.33,0-2.42,1.08-2.42,2.41v16.51c0,1.34,1.09,2.42,2.42,2.42h15.06c1.34,0,2.42-1.08,2.42-2.42v-12.72h-2Z"/>
        <path class="cls-1" d="m13.72,6.9l3.09,3.12,3.09,3.12h-6.18c0-2.08,0-4.16,0-6.24Z"/>
      </g>
      <g id="Layer_2" data-name="Layer 2">
        <g id="Layer_1-2" data-name="Layer 1-2">
          <g id="Pictogram">
            <polygon class="cls-1" points="34.36 0 5.54 0 5.54 6.5 7.46 6.5 7.46 1.91 32.44 1.91 32.44 19.17 28.78 19.15 28.77 24.09 23.76 19.17 21.88 19.17 21.88 21.08 22.98 21.08 30.68 28.66 30.69 21.09 34.36 21.1 34.36 0"/>
          </g>
        </g>
      </g>
    </g>
  </g>
</svg>