<svg width="24" height="24" viewBox="0 0 24 24" fill="none" xmlns="http://www.w3.org/2000/svg" preserveAspectRatio="xMinYMid meet"><defs><style>.cls-1{fill:#000;stroke-width:0}</style></defs><g id="Icons"><g id="PDF_Annotation_new" data-name="PDF Annotation new"><g id="Layer_2" data-name="Layer 2"><g id="Layer_1-2" data-name="Layer 1-2"><path class="cls-1" d="M21.3 2.9v11.3h-1.9v4.1l-3.7-3.7v-1.4l2.6 2.6.1-2.6h1.9V3.9H6.9v2.5h-1V2.9h15.4z" id="Pictogram"/></g></g><g id="PDF_Annotation_new_V02" data-name="PDF Annotation new V02"><path class="cls-1" d="M5.7 13.7v.4h-.5v-.6h.5z"/><path class="cls-1" d="M9.1 13.8c0-.1-.3-.2-.5-.2h-.2v1.5H9l.2-.2v-.5c0-.2 0-.5-.1-.6zm0 0c0-.1-.3-.2-.5-.2h-.2v1.5H9l.2-.2v-.5c0-.2 0-.5-.1-.6zm2.5-5.9H3.9c-.4 0-.8.4-.8.8V21c0 .4.4.8.8.8h9.6c.4 0 .8-.4.8-.8V10.6l-2.7-2.7zm-5.2 6.6c-.2.2-.4.2-.8.2h-.5v1h-.8V13h1.4c.3 0 .5 0 .7.2.2.2.2.4.2.6s0 .5-.3.6zm3.6.6c0 .2-.2.3-.3.4-.1.1-.2.2-.4.2H7.5V13h1.9c.2 0 .3.2.4.3 0 .1.2.3.2.4v1.2zm3.1-1.5h-1.2v.5H13v.6h-1.1v1.1h-.8v-2.7h2.1v.6zm-4.5.1h-.2v1.5H9l.2-.2v-.5c0-.2 0-.5-.1-.6s-.3-.2-.5-.2z"/></g></g></g></svg>
